<?xml version="1.0" encoding="UTF-8"?>
<svg width="239px" height="335px" viewBox="0 0 239 335" version="1.1" xmlns="http://www.w3.org/2000/svg" xmlns:xlink="http://www.w3.org/1999/xlink">
    <!-- Generator: Sketch 48.2 (47327) - http://www.bohemiancoding.com/sketch -->
    <title>home-guided-learning-path</title>
    <desc>Created with Sketch.</desc>
    <defs>
        <linearGradient x1="50%" y1="0%" x2="50%" y2="100%" id="linearGradient-1">
            <stop stop-color="#80C3F3" stop-opacity="0" offset="0%"></stop>
            <stop stop-color="#7CBFF1" offset="14.0801711%"></stop>
            <stop stop-color="#4A90E2" offset="49.3517485%"></stop>
            <stop stop-color="#4A90E2" offset="88.6700149%"></stop>
            <stop stop-color="#4A90E2" stop-opacity="0" offset="100%"></stop>
        </linearGradient>
        <filter x="-2.0%" y="-2.8%" width="107.6%" height="112.2%" filterUnits="objectBoundingBox" id="filter-2">
            <feOffset dx="3" dy="4" in="SourceAlpha" result="shadowOffsetOuter1"></feOffset>
            <feColorMatrix values="0 0 0 0 0.173222478   0 0 0 0 0.485953562   0 0 0 0 0.839657738  0 0 0 0.0819746377 0" type="matrix" in="shadowOffsetOuter1" result="shadowMatrixOuter1"></feColorMatrix>
            <feMerge>
                <feMergeNode in="shadowMatrixOuter1"></feMergeNode>
                <feMergeNode in="SourceGraphic"></feMergeNode>
            </feMerge>
        </filter>
    </defs>
    <g id="Home---Beginner-to-Paid-Professional" stroke="none" stroke-width="1" fill="none" fill-rule="evenodd" transform="translate(-372.000000, -456.000000)">
        <g id="home-guided-learning-path" transform="translate(372.000000, 456.000000)">
            <rect id="Rectangle-20" fill="url(#linearGradient-1)" opacity="0.316123188" x="107.145401" y="0" width="7.70326409" height="335"></rect>
            <ellipse id="Oval-8" fill="#4A90E2" cx="111.347181" cy="76.3912134" rx="8.40356083" ry="8.41004184"></ellipse>
            <ellipse id="Oval-8" fill="#4A90E2" cx="111.347181" cy="142.269874" rx="8.40356083" ry="8.41004184"></ellipse>
            <ellipse id="Oval-8" fill="#4A90E2" cx="111.347181" cy="205.345188" rx="8.40356083" ry="8.41004184"></ellipse>
            <ellipse id="Oval-8" fill="#4A90E2" cx="111.347181" cy="268.420502" rx="8.40356083" ry="8.41004184"></ellipse>
            <g id="demo-certificate" transform="translate(139.359050, 242.489540)" fill-rule="nonzero">
                <g id="icons8-diploma">
                    <rect id="Rectangle-path" fill="#F4F7F7" x="2.26762753" y="2.26270173" width="90.705101" height="67.881052"></rect>
                    <g id="Group">
                        <rect id="Rectangle-path" fill="#7AB5F9" x="18.1410202" y="13.5762104" width="58.9583157" height="9.05080693"></rect>
                        <rect id="Rectangle-path" fill="#7AB5F9" x="18.1410202" y="27.1524208" width="58.9583157" height="4.52540347"></rect>
                        <path d="M0,72.4064555 L95.2403561,72.4064555 L95.2403561,0 L0,0 L0,72.4064555 Z M90.705101,61.0929468 C86.9476422,61.0929468 83.9022185,64.1317552 83.9022185,67.881052 L11.3381376,67.881052 C11.3381376,64.1317552 8.29271386,61.0929468 4.53525505,61.0929468 L4.53525505,11.3135087 C8.29271386,11.3135087 11.3381376,8.27470024 11.3381376,4.52540347 L83.9022185,4.52540347 C83.9022185,8.27470024 86.9476422,11.3135087 90.705101,11.3135087 L90.705101,61.0929468 Z" id="Shape" fill="#9FBFDA"></path>
                        <path d="M47.620178,38.4659295 C53.8810976,38.4659295 58.9583157,43.5321186 58.9583157,49.7794381 C58.9583157,56.0290203 53.8810976,61.0929468 47.620178,61.0929468 C41.3569908,61.0929468 36.2820404,56.0290203 36.2820404,49.7794381 C36.2820404,43.5321186 41.3569908,38.4659295 47.620178,38.4659295 Z" id="Shape" fill="#F5A623"></path>
                    </g>
                    <path d="M47.620178,61.0929468 C45.0849705,61.0929468 42.7674551,60.2331201 40.8785214,58.8302451 L40.8172955,58.8302451 L40.8172955,79.1945607 L47.620178,72.4041928 L54.4230606,79.1945607 L54.4230606,58.8302451 L54.3618347,58.8302451 C52.4729009,60.2331201 50.1553856,61.0929468 47.620178,61.0929468 Z" id="Shape" fill="#DB5252"></path>
                </g>
                <g id="icons8-christmas_star" transform="translate(40.617211, 42.050209)">
                    <polygon id="Shape" fill="#FFCA28" points="7.35311573 0 9.8041543 4.55543933 14.7062315 5.25627615 11.2047478 8.76046025 11.9050445 14.0167364 7.35311573 11.5638075 2.80118694 14.0167364 3.50148368 8.76046025 0 5.25627615 4.90207715 4.55543933"></polygon>
                    <g id="Group" fill="#F5E676">
                        <polygon id="Shape" points="7.35311573 7.35878661 9.8041543 4.55543933 7.35311573 0"></polygon>
                        <polygon id="Shape" points="14.7062315 5.25627615 7.35311573 7.35878661 11.2047478 8.76046025"></polygon>
                        <polygon id="Shape" points="11.9050445 14.0167364 7.35311573 7.35878661 7.35311573 11.5638075"></polygon>
                        <polygon id="Shape" points="3.50148368 8.76046025 2.80118694 14.0167364 7.35311573 7.35878661"></polygon>
                        <polygon id="Shape" points="0 5.25627615 7.35311573 7.35878661 4.90207715 4.55543933"></polygon>
                    </g>
                </g>
            </g>
            <g id="demo-header-image" transform="translate(0.000000, 45.554393)">
                <g id="icons8-google_sites">
                    <rect id="Rectangle-path" fill="#5682CB" fill-rule="nonzero" x="0" y="4.76672102" width="88.2373887" height="34.8357125"></rect>
                    <path d="M83.8255193,70.083682 L44.1186944,70.083682 L44.1186944,39.6024335 L88.2373887,39.6024335 L88.2373887,65.7292179 C88.2373887,68.1350593 86.2630772,70.083682 83.8255193,70.083682 Z" id="Shape" fill="#446386" fill-rule="nonzero"></path>
                    <path d="M44.1186944,70.083682 L4.41186944,70.083682 C1.97431157,70.083682 0,68.1350593 0,65.7292179 L0,39.6024335 L44.1186944,39.6024335 L44.1186944,70.083682 Z" id="Shape" fill="#E0E0E0" fill-rule="nonzero"></path>
                    <path d="M88.2373887,4.76672102 L0,4.76672102 L0,4.76672102 C-2.94515811e-16,2.36181692 1.94955997,0.412256953 4.35446407,0.412256953 L83.8829247,0.412256953 C86.2878288,0.412256953 88.2373887,2.36181692 88.2373887,4.76672102 Z" id="Shape" fill="#9E9E9E" fill-rule="nonzero"></path>
                    <ellipse id="Oval" fill="#FFFFFF" fill-rule="nonzero" cx="5.46023445" cy="2.84714958" rx="1.09204689" ry="1.09505753"></ellipse>
                    <ellipse id="Oval" fill="#FFFFFF" fill-rule="nonzero" cx="9.39160326" cy="2.84714958" rx="1.09204689" ry="1.09505753"></ellipse>
                    <path d="M6.61780415,45.0455136 L37.5008902,45.0455136" id="Shape" stroke="#9E9E9E" stroke-width="2.19413376"></path>
                    <path d="M6.61780415,51.5772097 L37.5008902,51.5772097" id="Shape" stroke="#9E9E9E" stroke-width="2.19413376"></path>
                    <path d="M6.61780415,58.1089058 L37.5008902,58.1089058" id="Shape" stroke="#9E9E9E" stroke-width="2.19413376"></path>
                    <path d="M6.61780415,64.6406019 L26.4712166,64.6406019" id="Shape" stroke="#9E9E9E" stroke-width="2.19413376"></path>
                </g>
            </g>
            <g id="Group-11" filter="url(#filter-2)" transform="translate(136.557864, 112.133891)">
                <g id="Content">
                    <g id="Group-2">
                        <rect id="Rectangle-14" fill="#62677A" x="0" y="0" width="99.4421365" height="72.1861925" rx="2.80230524"></rect>
                        <path d="M2.80230524,0 L96.6398313,-4.4408921e-16 C98.1875017,-7.28391659e-16 99.4421365,1.25463479 99.4421365,2.80230524 L99.4421365,5.60669456 L0,5.60669456 L-4.4408921e-16,2.80230524 C-6.33624176e-16,1.25463479 1.25463479,-1.5978676e-16 2.80230524,-4.4408921e-16 Z" id="Rectangle-14" fill="#494B5B"></path>
                        <ellipse id="Oval-3" fill="#DB5252" cx="3.17368521" cy="3.15376569" rx="1.05789507" ry="1.05125523"></ellipse>
                        <ellipse id="Oval-3" fill="#1EA899" cx="6.7000021" cy="3.15376569" rx="1.05789507" ry="1.05125523"></ellipse>
                    </g>
                </g>
                <g id="Group-3" transform="translate(7.979925, 9.176211)">
                    <g id="slope-content-icon-small" transform="translate(8.593765, 0.000000)">
                        <g id="slope-content-icon">
                            <g>
                                <g id="Group" transform="translate(10.493258, 0.000000)" fill-rule="nonzero">
                                    <rect id="Rectangle-path" fill="#55656C" x="0.874438158" y="0.89907547" width="43.7219079" height="10.7889056"></rect>
                                    <path d="M43.7219079,1.79815094 L43.7219079,10.7889056 L1.74887632,10.7889056 L1.74887632,1.79815094 L43.7219079,1.79815094 Z M45.4707842,0 L0,0 L0,12.5870566 L45.4707842,12.5870566 L45.4707842,0 Z" id="Shape" fill="#8C97A2"></path>
                                </g>
                                <g id="Group" transform="translate(5.246629, 5.394453)" fill-rule="nonzero">
                                    <rect id="Rectangle-path" fill="#55656C" x="0.874438158" y="0.89907547" width="54.2151658" height="10.7889056"></rect>
                                    <path d="M54.2151658,1.79815094 L54.2151658,10.7889056 L1.74887632,10.7889056 L1.74887632,1.79815094 L54.2151658,1.79815094 Z M55.9640421,0 L0,0 L0,12.5870566 L55.9640421,12.5870566 L55.9640421,0 Z" id="Shape" fill="#8C97A2"></path>
                                </g>
                                <g id="Group" transform="translate(0.000000, 11.007811)">
                                    <rect id="Rectangle-path" fill="#55656C" fill-rule="nonzero" x="0.874438158" y="0.89907547" width="64.7084237" height="44.9537735"></rect>
                                    <g id="Group-13" transform="translate(3.395628, 5.722811)">
                                        <rect id="Rectangle" fill-opacity="0.6" fill="#DB5252" x="1.94035912" y="0" width="30.5606562" height="3.00213026" rx="0.6918912"></rect>
                                        <rect id="Rectangle" fill="#B8E986" opacity="0.6" x="6.79125693" y="5.00355044" width="30.5606562" height="3.00213026" rx="0.6918912"></rect>
                                        <rect id="Rectangle" fill="#8C9A9E" opacity="0.6" x="39.7998496" y="5.00355044" width="18.7353881" height="3.00213026" rx="0.6918912"></rect>
                                        <rect id="Rectangle" fill="#90B47C" x="1.94035912" y="20.0142018" width="38.8071825" height="3.00213026" rx="0.6918912"></rect>
                                        <rect id="Rectangle-2" fill="#76848A" x="0" y="29.0205926" width="59.6660431" height="9.00639079" rx="0.6918912"></rect>
                                        <rect id="Rectangle" fill="#4A90E2" opacity="0.6" x="11.6421547" y="10.0071009" width="33.9562847" height="3.00213026" rx="0.6918912"></rect>
                                        <rect id="Rectangle" fill="#76848A" x="6.79125693" y="15.0106513" width="44.1431701" height="3.00213026" rx="0.6918912"></rect>
                                    </g>
                                    <path d="M64.7084237,1.79815094 L64.7084237,44.9537735 L1.74887632,44.9537735 L1.74887632,1.79815094 L64.7084237,1.79815094 Z M66.4573,0 L0,0 L0,46.7519244 L66.4573,46.7519244 L66.4573,0 Z" id="Shape" fill="#8C97A2" fill-rule="nonzero"></path>
                                </g>
                                <g id="Group-14" transform="translate(21.343950, 22.515977)">
                                    <ellipse id="Oval-2" fill-opacity="0.752774004" fill="#394547" cx="11.8846996" cy="12.2586986" rx="11.8846996" ry="12.2586986"></ellipse>
                                    <path d="M7.27634672,6.59382367 L7.27634672,18.4239285 C7.27634672,18.614989 7.43123184,18.7698741 7.62229232,18.7698741 C7.68136611,18.7698741 7.73945585,18.7547469 7.79102638,18.7259338 L18.3779635,12.8108814 C18.5447564,12.7176921 18.6044239,12.5069349 18.5112346,12.340142 C18.4800015,12.2842401 18.4338654,12.238104 18.3779635,12.2068708 L7.79102638,6.29181841 C7.62423348,6.19862916 7.41347631,6.25829671 7.32028706,6.4250896 C7.29147397,6.47666013 7.27634672,6.53474987 7.27634672,6.59382367 Z" id="Shape" fill="#FFFFFF" fill-rule="nonzero"></path>
                                </g>
                            </g>
                        </g>
                    </g>
                </g>
            </g>
            <g id="prelaunch-projects-portfolio" transform="translate(48.670623, 202.191423) scale(-1, 1) translate(-48.670623, -202.191423) translate(8.403561, 163.995816)" fill-rule="nonzero">
                <g id="icons8-property_script-copy" transform="translate(40.442919, 38.195607) scale(-1, 1) translate(-40.442919, -38.195607) translate(0.455490, 0.000000)">
                    <path d="M67.8258741,16.0048728 C67.8258741,17.2052382 67.0279226,18.0054819 65.8309954,18.0054819 L1.99487865,18.0054819 C0.79795146,18.0054819 0,17.2052382 0,16.0048728 L0,2.0006091 C0,0.800243639 0.79795146,0 1.99487865,0 L65.8309954,0 C67.0279226,0 67.8258741,0.800243639 67.8258741,2.0006091 L67.8258741,16.0048728 Z" id="Shape" fill="#3F51B5"></path>
                    <rect id="Rectangle-path" fill="#BBDEFB" x="0" y="10.0030455" width="67.8258741" height="58.0176638"></rect>
                    <path d="M53.8617235,32.0097455 L21.9436651,32.0097455 L21.9436651,28.0085274 L53.8617235,28.0085274 L53.8617235,32.0097455 Z M53.8617235,20.006091 L21.9436651,20.006091 L21.9436651,24.0073092 L53.8617235,24.0073092 L53.8617235,20.006091 Z M47.8770876,44.0134001 L21.9436651,44.0134001 L21.9436651,48.0146183 L47.8770876,48.0146183 L47.8770876,44.0134001 Z M47.8770876,52.0158365 L21.9436651,52.0158365 L21.9436651,56.0170547 L47.8770876,56.0170547 L47.8770876,52.0158365 Z M47.8770876,36.0109637 L21.9436651,36.0109637 L21.9436651,40.0121819 L47.8770876,40.0121819 L47.8770876,36.0109637 Z M13.9641505,24.0073092 L17.9539078,24.0073092 L17.9539078,20.006091 L13.9641505,20.006091 L13.9641505,24.0073092 Z M13.9641505,32.0097455 L17.9539078,32.0097455 L17.9539078,28.0085274 L13.9641505,28.0085274 L13.9641505,32.0097455 Z M13.9641505,56.0170547 L17.9539078,56.0170547 L17.9539078,52.0158365 L13.9641505,52.0158365 L13.9641505,56.0170547 Z M13.9641505,40.0121819 L17.9539078,40.0121819 L17.9539078,36.0109637 L13.9641505,36.0109637 L13.9641505,40.0121819 Z M13.9641505,48.0146183 L17.9539078,48.0146183 L17.9539078,44.0134001 L13.9641505,44.0134001 L13.9641505,48.0146183 Z" id="Shape" fill="#1976D2"></path>
                    <path d="M73.81051,76.0231457 C67.8258741,76.0231457 51.8668449,76.0231457 51.8668449,76.0231457 L51.8668449,36.0109637 L79.795146,36.0109637 L79.795146,70.0213184 C79.795146,70.0213184 79.795146,76.0231457 73.81051,76.0231457 Z" id="Shape" fill="#4DB6AC"></path>
                    <path d="M67.8258741,70.0213184 L67.8258741,66.0201002 L45.8822089,66.0201002 L45.8822089,70.0213184 C45.8822089,76.2232066 51.8668449,76.0231457 51.8668449,76.0231457 L73.81051,76.0231457 C73.0125586,76.0231457 67.8258741,75.8230848 67.8258741,70.0213184 Z" id="Shape" fill="#00897B"></path>
                    <g id="Group" transform="translate(55.947189, 42.557043)">
                        <polygon id="Shape" fill="#FFEEA3" points="8.04770832 17.9997284 4.57040975 18.4697566 3.96298914 15.1642835 0.860717468 13.5908643 2.40386093 10.5756336 0.860717468 7.56040296 3.96298914 5.98698369 4.57040975 2.68151065 8.04770832 3.15153881 10.5720697 0.817848999 13.0964311 3.15153881 16.5737296 2.68151065 17.1811503 5.98698369 20.2834219 7.56040296 18.7402785 10.5756336 20.2834219 13.5908643 17.1811503 15.1642835 16.5737296 18.4697566 13.0964311 17.9997284 10.5720697 20.3334182"></polygon>
                        <path d="M10.5720697,1.63452293 L12.4533522,3.37362712 L12.8849405,3.77315106 L13.4800651,3.69324627 L16.0708247,3.34307529 L16.5233162,5.80602285 L16.6266023,6.37123171 L17.1577879,6.64032283 L19.4694291,7.81186802 L18.3197565,10.0586026 L18.0566229,10.5756336 L18.3209861,11.0914895 L19.4706587,13.3382241 L17.1590175,14.5097693 L16.6278319,14.7788604 L16.5245458,15.3440693 L16.0720543,17.8070168 L13.4812947,17.4568459 L12.8861701,17.3769411 L12.4545818,17.776465 L10.5732993,19.5155692 L8.69201683,17.776465 L8.2604285,17.3769411 L7.66530385,17.4568459 L5.07454427,17.8070168 L4.6220528,15.3440693 L4.51876671,14.7788604 L3.98758107,14.5097693 L1.67593987,13.3382241 L2.82561249,11.0914895 L3.08751652,10.5756336 L2.82315329,10.0597777 L1.67348068,7.81304309 L3.98512188,6.6414979 L4.51630751,6.37240678 L4.61959361,5.80719792 L5.07208508,3.34425036 L7.66284466,3.69442134 L8.25796931,3.77432613 L8.68955764,3.37480219 L10.5720697,1.63452293 Z M10.5720697,0 L7.83621775,2.5287515 L4.06750483,2.01877095 L3.40967077,5.6015606 L0.0467246625,7.30658775 L1.71897574,10.5756336 L0.0467246625,13.8435044 L3.40967077,15.5485315 L4.06750483,19.1313212 L7.83621775,18.6213406 L10.5720697,21.1512672 L13.3079216,18.6225157 L17.0766346,19.1324963 L17.7344686,15.5497066 L21.0974147,13.8446795 L19.4251637,10.5756336 L21.0974147,7.30776282 L17.7344686,5.60273567 L17.0766346,2.01994602 L13.3079216,2.52992657 L10.5720697,0 Z" id="Shape" fill="#EAD67C"></path>
                    </g>
                </g>
            </g>
        </g>
    </g>
</svg>